# xmcd
#
# Track frame offsets:
#	150
#	13129
#	30907
#	40408
#	56457
#	73417
#	84263
#	102538
#	117599
#	129135
#
# Disc length: 1943 seconds
#
# Revision: 0
# Processed by: cddbd v1.5.1PL2 Copyright (c) Steve Scherf et al.
# Submitted via: EasyCDDAExtractor 8.2.2.1
#
DISCID=8207950a
DTITLE=Betsy Craig - Living Straight
DYEAR=1900
DGENRE=
TTITLE0=Livin' Straight In A Crooked World
TTITLE1=Anything For Grace
TTITLE2=There's A Rock Between Me and A Hard Place
TTITLE3=You Led Me To Believe
TTITLE4=All There Is
TTITLE5=Oh Me Of Little Faith
TTITLE6=Like Her
TTITLE7=Girl Ain't One Of The Boys Anymore
TTITLE8=One Track Mind
TTITLE9=If The Truth Were Known
EXTD=
EXTT0=
EXTT1=
EXTT2=
EXTT3=
EXTT4=
EXTT5=
EXTT6=
EXTT7=
EXTT8=
EXTT9=
PLAYORDER=
